<?xml version="1.0" encoding="UTF-8"?>
<!DOCTYPE svg PUBLIC "-//W3C//DTD SVG 1.1//EN" "http://www.w3.org/Graphics/SVG/1.1/DTD/svg11.dtd">
<!-- Creator: CorelDRAW 2021 (64 Bit) -->
<svg xmlns="http://www.w3.org/2000/svg" xml:space="preserve" width="412.664mm" height="49.4766mm" version="1.1" style="shape-rendering:geometricPrecision; text-rendering:geometricPrecision; image-rendering:optimizeQuality; fill-rule:evenodd; clip-rule:evenodd"
viewBox="0 0 41266.36 4947.66"
 xmlns:xlink="http://www.w3.org/1999/xlink"
 xmlns:xodm="http://www.corel.com/coreldraw/odm/2003">
 <defs>
  <style type="text/css">
   <![CDATA[
    .fil1 {fill:#FEFEFE;fill-rule:nonzero}
    .fil0 {fill:url(#id0)}
   ]]>
  </style>
  <linearGradient id="id0" gradientUnits="userSpaceOnUse" x1="1553.45" y1="2479.37" x2="5322.87" y2="2479.37">
   <stop offset="0" style="stop-opacity:1; stop-color:#FF00C8"/>
   <stop offset="0.501961" style="stop-opacity:1; stop-color:#FFE647"/>
   <stop offset="1" style="stop-opacity:1; stop-color:#A006CB"/>
  </linearGradient>
 </defs>
 <g id="Camada_x0020_1">
  <metadata id="CorelCorpID_0Corel-Layer"/>
  <g id="_1709556047216">
   <path class="fil0" d="M4981.68 2475.46l-1249.21 -1249.21 0 -1005.88 0 -213.47 213.49 0c154.08,0 308.19,0 462.3,0 332.71,332.71 665.42,665.4 998.13,998.11 491.94,491.91 983.86,983.83 1475.8,1475.75 -824.62,824.6 -1649.23,1649.2 -2473.85,2473.8 -277.7,0 -411.26,0 -675.87,0 0,-409.96 0,-819.93 0,-1229.89l1249.21 -1249.21zm-1835.68 -2255.09l0 -213.47 -213.5 0c-154.08,0 -308.19,0 -462.3,0 -332.71,332.71 -665.42,665.4 -998.12,998.11 -491.95,491.91 -983.87,983.83 -1475.81,1475.75 824.63,824.6 1649.23,1649.2 2473.86,2473.8 277.69,0 411.25,0 675.87,0 0,-409.96 0,-819.93 0,-1229.89l-1249.24 -1249.21 1249.24 -1249.21 0 -1005.88 0 0zm-549.64 79.76l256.24 0 0 800.08 -1375.25 1375.25 1375.32 1375.29 0 806.48 -260.5 0c-725.45,-725.46 -1450.94,-1450.94 -2176.42,-2176.39l2180.61 -2180.71zm1685.74 0l-256.24 0 0 800.08 1375.25 1375.25 -1375.32 1375.29 0 806.48 260.5 0c725.46,-725.46 1450.94,-1450.94 2176.42,-2176.39l-2180.61 -2180.71z"/>
   <path class="fil1" d="M11292.55 731.4c-129.45,-229.65 -298.56,-406.03 -507.31,-529.22 -208.78,-123.16 -444.68,-184.75 -707.72,-184.75 -179.52,0 -352.8,28.2 -519.79,84.56 -167.04,56.36 -316.3,137.78 -447.82,244.24 -131.54,106.46 -234.84,235.91 -310.02,388.3 -75.14,152.39 -112.73,320.44 -112.73,504.15 0,158.65 27.14,299.57 81.43,422.75 54.28,123.16 128.38,231.72 222.34,325.65 93.92,93.95 199.37,175.37 316.26,244.24 116.92,68.92 252.59,136.75 407.07,203.54l325.69 137.79c116.92,50.12 222.34,100.22 316.27,150.32 93.95,50.09 174.34,106.45 241.11,169.08 171.21,154.49 256.8,346.56 256.8,576.18 0,250.51 -82.48,466.56 -247.4,648.22 -164.92,181.6 -372.63,272.42 -623.14,272.42 -254.7,0 -470.78,-84.56 -648.2,-253.64 -177.45,-169.09 -266.17,-383.09 -266.17,-641.94l-594.98 125.25c25.06,187.89 79.31,362.2 162.83,522.95 83.51,160.73 189.97,301.64 319.4,422.73 129.44,121.09 277.64,213.98 444.68,278.7 166.99,64.7 344.44,97.06 532.34,97.06 208.75,0 405,-35.47 588.71,-106.45 183.71,-70.99 344.44,-173.26 482.22,-306.88 137.79,-133.61 245.28,-291.21 322.56,-472.85 77.23,-181.61 115.83,-376.82 115.83,-585.57 0,-192.05 -28.17,-362.18 -84.53,-510.42 -56.36,-148.22 -136.72,-277.64 -241.13,-388.27 -104.37,-110.67 -226.51,-207.71 -366.37,-291.23 -139.88,-83.52 -299.57,-160.75 -479.11,-231.74l-338.18 -131.5c-187.9,-70.96 -344.46,-159.71 -469.72,-266.17 -125.25,-106.46 -187.9,-243.18 -187.9,-410.22 0,-196.24 81.42,-356.97 244.27,-482.22 162.82,-125.26 344.46,-187.89 544.87,-187.89 175.35,0 323.57,36.53 444.66,109.6 121.08,73.08 225.47,184.74 313.13,335.06l469.75 -281.83zm6519.62 1784.89l0 6.26 0 2317.24 588.73 0 0 -2317.24 1640.87 0 0 -538.61 -1640.87 0 0 532.35 -588.73 0zm588.73 -532.35l0 -1327.7 1108.5 0 0 -538.61 -1697.23 0 0 1866.31 588.73 0zm20325.26 2855.85l2536.47 0 0 -538.61 -1947.76 0 0 -1784.89 0 -532.35 -588.71 0 0 -1866.31 2536.47 0 0 538.61 -1947.76 0 0 1321.46 1891.39 0 0 538.59 -1891.39 0 -588.71 0 0 2323.5zm-4214.76 0l958.23 0c375.77,0 725.44,-49.06 1049.03,-147.18 323.59,-98.12 607.5,-247.38 851.75,-447.79 244.26,-200.41 433.18,-450.92 566.77,-751.53 133.62,-300.63 200.42,-647.17 200.42,-1039.63 0,-384.1 -67.84,-723.34 -203.52,-1017.7 -135.72,-294.37 -325.69,-538.59 -569.91,-732.76 -244.27,-194.12 -526.11,-340.27 -845.51,-438.39 -319.4,-98.1 -662.83,-147.18 -1030.23,-147.18l-977.03 0 0 4722.16zm588.71 -4183.55l206.68 0c313.14,0 604.37,31.32 873.7,93.95 269.3,62.63 506.22,164.92 710.8,306.87 204.58,141.98 365.36,330.9 482.25,566.78 116.92,235.91 175.35,520.88 175.35,854.88 0,329.84 -58.43,612.68 -175.35,848.62 -116.89,235.88 -277.67,424.8 -482.25,566.75 -204.58,141.95 -440.49,245.3 -707.69,310.03 -267.24,64.7 -559.48,97.06 -876.81,97.06l-206.68 0 0 -3644.94zm-6112.54 1824.5c0,334.03 63.69,651.34 191.02,951.95 127.35,300.6 304.8,564.7 532.37,792.25 227.54,227.54 491.62,406.03 792.25,535.48 300.6,129.42 615.84,194.14 945.7,194.14 342.34,0 664.9,-63.68 967.6,-191.01 302.7,-127.35 565.74,-304.8 789.12,-532.35 223.35,-227.57 396.65,-491.62 519.79,-792.25 82.29,-200.8 137.08,-409.98 164.39,-627.55l-559.05 0c-23.78,135.01 -62.34,265.86 -115.73,392.7 -96.03,227.55 -231.74,429 -407.09,604.35 -175.38,175.38 -379.96,312.13 -613.77,410.22 -233.81,98.12 -482.25,147.19 -745.26,147.19 -258.9,0 -504.18,-45.93 -735.92,-137.79 -231.71,-91.86 -436.29,-222.32 -613.74,-391.43 -177.45,-169.08 -315.23,-369.52 -413.35,-601.23 -98.13,-231.72 -147.21,-483.26 -147.21,-754.67 0,-271.4 49.08,-522.92 147.21,-754.66 98.12,-231.71 235.9,-432.12 413.35,-601.21 177.45,-169.11 382.03,-299.57 613.74,-391.43 231.74,-91.85 477.02,-137.78 735.92,-137.78 263.01,0 511.45,49.04 745.26,147.16 233.81,98.14 438.39,234.87 613.77,410.22 175.35,175.35 311.06,376.8 407.09,604.37 96.02,227.54 144.05,468.66 144.05,723.33 0,104.85 -8.15,207.41 -24.41,307.65l563.45 -563.46c-23.47,-244.51 -81.09,-478.63 -172.7,-702.39 -123.14,-300.61 -296.44,-564.71 -519.79,-792.25 -223.38,-227.55 -486.42,-404.97 -789.12,-532.32 -302.7,-127.36 -625.26,-191.02 -967.6,-191.02 -329.86,0 -645.1,64.7 -945.7,194.15 -300.63,129.45 -564.71,307.93 -792.25,535.45 -227.57,227.55 -405.02,491.65 -532.37,792.25 -127.33,300.63 -191.02,617.94 -191.02,951.94zm-304.82 -2143.93c-171.21,-108.51 -359.07,-188.87 -563.67,-241.09 -204.58,-52.19 -413.35,-78.29 -626.27,-78.29 -342.39,0 -665.96,62.65 -970.76,187.89 -304.8,125.27 -573.05,302.7 -804.78,532.34 -231.72,229.64 -412.3,495.79 -541.75,798.52 -129.42,302.68 -194.12,625.21 -194.12,967.6 0,334.01 63.64,649.22 190.99,945.65 127.38,296.47 304.8,557.41 532.34,782.88 227.55,225.45 491.65,399.77 792.28,522.92 300.61,123.16 615.84,184.75 945.7,184.75 208.75,0 422.73,-29.22 641.91,-87.66 219.21,-58.46 418.59,-139.88 598.13,-244.24l0 -695.17c-175.35,158.63 -371.6,279.71 -588.73,363.23 -217.09,83.5 -440.46,125.26 -670.13,125.26 -258.85,0 -501.02,-50.1 -726.47,-150.32 -225.47,-100.22 -422.75,-240.07 -591.86,-419.62 -169.09,-179.52 -300.61,-385.16 -394.54,-616.85 -93.95,-231.74 -140.94,-474.95 -140.94,-729.62 0,-258.88 46.99,-505.19 140.94,-739.03 93.93,-233.81 226.49,-440.46 397.7,-620.01 171.16,-179.54 370.53,-319.4 598.08,-419.62 227.54,-100.19 470.75,-150.29 729.62,-150.29 225.47,0 447.79,39.67 667,118.99 219.2,79.33 412.32,194.15 579.33,344.44l0 -682.66zm-6580.5 319.43l1121.05 0 0 -538.61 -2830.83 0 0 538.61 1121.08 0 0 4183.55 588.7 0 0 -4183.55zm-5173.12 -538.61l-588.73 0 0 538.61 588.73 0 0 -538.61zm-588.73 1077.22l0 3644.94 588.73 0 0 -3644.94 -588.73 0zm-3720.15 826.68l0 -1903.9 -588.71 0 0 4722.16 588.71 0 0 -2267.14 2248.39 0 0 2267.14 588.71 0 0 -4722.16 -588.71 0 0 1903.9 -2248.39 0z"/>
  </g>
 </g>
</svg>
